<svg width="24" height="22" viewBox="0 0 24 24" fill="none" xmlns="http://www.w3.org/2000/svg">
<path d="M17.7187 15.1875C16.8631 15.1873 16.0414 15.5223 15.4298 16.1208L9.46874 12.7693C9.59123 12.2638 9.59123 11.7363 9.46874 11.2308L15.428 7.87926C15.9847 8.42079 16.716 8.74649 17.4909 8.79805C18.2659 8.8496 19.0339 8.62365 19.6574 8.16065C20.281 7.69764 20.7194 7.02781 20.8941 6.27107C21.0689 5.51433 20.9686 4.72009 20.6112 4.03054C20.2538 3.341 19.6627 2.80117 18.9436 2.50769C18.2245 2.21422 17.4245 2.18627 16.6867 2.42885C15.9489 2.67142 15.3215 3.16868 14.9169 3.8316C14.5122 4.49452 14.3567 5.27983 14.4783 6.04692L8.37843 9.47817C7.8993 9.07898 7.31634 8.82459 6.69784 8.74481C6.07933 8.66504 5.4509 8.76317 4.88617 9.02771C4.32143 9.29225 3.84377 9.71225 3.50916 10.2385C3.17454 10.7648 2.99683 11.3755 2.99683 11.9991C2.99683 12.6227 3.17454 13.2334 3.50916 13.7597C3.84377 14.286 4.32143 14.706 4.88617 14.9705C5.4509 15.235 6.07933 15.3332 6.69784 15.2534C7.31634 15.1736 7.8993 14.9192 8.37843 14.52L14.4783 17.9532C14.3728 18.6159 14.4731 19.295 14.7656 19.8989C15.058 20.5029 15.5286 21.0026 16.1139 21.3308C16.6992 21.659 17.3711 21.7999 18.0389 21.7344C18.7067 21.6689 19.3385 21.4003 19.8489 20.9646C20.3593 20.529 20.7239 19.9474 20.8935 19.2981C21.0631 18.6489 21.0295 17.9632 20.7974 17.3336C20.5652 16.704 20.1457 16.1607 19.5952 15.777C19.0447 15.3933 18.3898 15.1875 17.7187 15.1875V15.1875Z" fill="white"/>
</svg>
